<svg width="24" height="24" viewBox="0 0 24 24" fill="none" xmlns="http://www.w3.org/2000/svg">
<path d="M10 12.5C10 13.3284 10.6716 14 11.5 14C12.3284 14 13 13.3284 13 12.5C13 11.6716 12.3284 11 11.5 11C10.6716 11 10 11.6716 10 12.5Z" fill="#4A4A4C"/>
<path d="M10 19.5C10 20.3284 10.6716 21 11.5 21C12.3284 21 13 20.3284 13 19.5C13 18.6716 12.3284 18 11.5 18C10.6716 18 10 18.6716 10 19.5Z" fill="#4A4A4C"/>
<path d="M10 5.5C10 6.32843 10.6716 7 11.5 7C12.3284 7 13 6.32843 13 5.5C13 4.67157 12.3284 4 11.5 4C10.6716 4 10 4.67157 10 5.5Z" fill="#4A4A4C"/>
</svg>
